<svg id="Layer_1" data-name="Layer 1" xmlns="http://www.w3.org/2000/svg" viewBox="0 0 511.78 151.66"><defs><style>.cls-1{fill:#7d7c7d;}</style></defs><title>apple_light</title><path class="cls-1" d="M489.86,151.66H21.92A21.82,21.82,0,0,1,0,130V21.67A21.82,21.82,0,0,1,21.92,0H489.86a21.82,21.82,0,0,1,21.92,21.67V130A21.82,21.82,0,0,1,489.86,151.66ZM21.92,2.59A19.21,19.21,0,0,0,2.62,21.67V130a19.21,19.21,0,0,0,19.3,19.07H489.86A19.21,19.21,0,0,0,509.15,130V21.67a19.21,19.21,0,0,0-19.3-19.07Z"/><g id="Download_on_the_App_Store_Badge_US-UK_135x40" data-name="Download on the App Store Badge US-UK 135x40"><g id="group"><g id="group-2"><path id="path-3" class="cls-1" d="M113.17,74.86c-.11-12.29,10.1-18.27,10.56-18.55a22.74,22.74,0,0,0-17.89-9.64c-7.53-.79-14.83,4.49-18.66,4.49S77.37,46.74,71,46.87A23.83,23.83,0,0,0,51,59.06c-8.67,15-2.2,37,6.1,49,4.15,5.92,9,12.54,15.36,12.31s8.54-4,16-4,9.61,4,16.1,3.8c6.67-.11,10.87-6,14.88-11.93a48.88,48.88,0,0,0,6.81-13.82C126.1,94.47,113.3,89.6,113.17,74.86Z"/><path id="path-4" class="cls-1" d="M100.93,38.71c3.34-4.17,5.63-9.84,5-15.6-4.84.21-10.89,3.34-14.38,7.42-3.08,3.59-5.84,9.48-5.13,15C91.86,46,97.44,42.81,100.93,38.71Z"/></g></g><g id="group-3"><path id="path-5" class="cls-1" d="M203.14,119.57h-8.69l-4.76-14.91H173.15l-4.53,14.91h-8.46l16.39-50.76h10.13ZM188.26,98.4,184,85.15q-.68-2-2.57-9.56h-.15q-.75,3.24-2.42,9.56L174.59,98.4Z"/><path id="path-6" class="cls-1" d="M245.29,100.82q0,9.34-5.06,14.76A14.82,14.82,0,0,1,229,120.39q-7.25,0-10.42-5.2h-.15v19.28h-8.16V95q0-5.87-.3-12h7.17l.45,5.8h.15q4.08-6.56,12.39-6.55a13.63,13.63,0,0,1,10.84,5.12Q245.3,92.46,245.29,100.82Zm-8.31.3a15,15,0,0,0-2.42-8.81,8.36,8.36,0,0,0-7.1-3.62,8.5,8.5,0,0,0-5.47,2,9.25,9.25,0,0,0-3.21,5.24,10.61,10.61,0,0,0-.38,2.48v6.1a9.76,9.76,0,0,0,2.46,6.74,8.15,8.15,0,0,0,6.38,2.75,8.36,8.36,0,0,0,7.17-3.54Q237,106.91,237,101.11Z"/><path id="path-7" class="cls-1" d="M287.52,100.82q0,9.34-5.07,14.76a14.81,14.81,0,0,1-11.25,4.82q-7.25,0-10.42-5.2h-.15v19.28h-8.15V95q0-5.87-.3-12h7.17l.45,5.8h.15q4.08-6.56,12.39-6.55a13.66,13.66,0,0,1,10.84,5.12Q287.51,92.46,287.52,100.82Zm-8.31.3a15,15,0,0,0-2.42-8.81,8.35,8.35,0,0,0-7.1-3.62,8.51,8.51,0,0,0-5.48,2A9.24,9.24,0,0,0,261,95.92a10.83,10.83,0,0,0-.38,2.48v6.1a9.79,9.79,0,0,0,2.45,6.74,8.17,8.17,0,0,0,6.39,2.75,8.36,8.36,0,0,0,7.17-3.54Q279.21,106.91,279.21,101.11Z"/><path id="path-8" class="cls-1" d="M334.73,105.33a13.51,13.51,0,0,1-4.52,10.54q-5,4.45-13.87,4.44-8.22,0-13.2-3.16l1.89-6.78a22.41,22.41,0,0,0,11.79,3.24,11.15,11.15,0,0,0,7.18-2.08,6.77,6.77,0,0,0,2.56-5.55,7.06,7.06,0,0,0-2.12-5.2,19.64,19.64,0,0,0-7-3.93q-13.37-5-13.36-14.56a12.86,12.86,0,0,1,4.69-10.26q4.67-4,12.46-4a24.77,24.77,0,0,1,11.55,2.41l-2,6.63A20.09,20.09,0,0,0,321,74.77a9.88,9.88,0,0,0-6.72,2.1,6,6,0,0,0-2,4.6,6.2,6.2,0,0,0,2.34,5q2,1.81,7.41,3.92,6.57,2.64,9.67,6.17A12.87,12.87,0,0,1,334.73,105.33Z"/><path id="path-9" class="cls-1" d="M361.7,89.07h-9v17.77q0,6.78,4.76,6.78a14.55,14.55,0,0,0,3.62-.38l.23,6.18a18.53,18.53,0,0,1-6.34.9,9.8,9.8,0,0,1-7.56-2.94q-2.71-2.94-2.72-9.87V89.06h-5.36V83h5.36v-6.7l8-2.41V83h9v6.11Z"/><path id="path-10" class="cls-1" d="M402.26,101q0,8.44-4.83,13.86-5.07,5.57-13.45,5.57-8.08,0-12.87-5.34a19.44,19.44,0,0,1-4.8-13.48q0-8.51,4.95-13.93t13.33-5.42q8.08,0,13,5.35Q402.26,92.75,402.26,101Zm-8.46.26a16.43,16.43,0,0,0-2.19-8.69,8.06,8.06,0,0,0-7.32-4.38,8.18,8.18,0,0,0-7.48,4.38,16.74,16.74,0,0,0-2.19,8.84,16.4,16.4,0,0,0,2.19,8.68,8.23,8.23,0,0,0,7.41,4.38q4.67,0,7.32-4.45A16.48,16.48,0,0,0,393.8,101.23Z"/><path id="path-11" class="cls-1" d="M428.77,90.12a14.2,14.2,0,0,0-2.57-.22,7.72,7.72,0,0,0-6.65,3.24,12.16,12.16,0,0,0-2,7.23v19.21h-8.15l.08-25.08q0-6.33-.31-11.52h7.11l.3,7h.23a12.52,12.52,0,0,1,4.08-5.8,9.88,9.88,0,0,1,5.9-2,13.13,13.13,0,0,1,2,.15Z"/><path id="path-12" class="cls-1" d="M465.25,99.53a19,19,0,0,1-.3,3.69H440.48q.14,5.42,3.55,8.29a12.15,12.15,0,0,0,8,2.56,27.14,27.14,0,0,0,9.9-1.73l1.28,5.65a30.69,30.69,0,0,1-12.31,2.26q-8.54,0-13.41-5t-4.87-13.44q0-8.28,4.54-13.78A15.65,15.65,0,0,1,450,82.14q7.94,0,12,5.87A19.75,19.75,0,0,1,465.25,99.53Zm-7.78-2.11a11,11,0,0,0-1.58-6.25,7.13,7.13,0,0,0-6.5-3.39,7.75,7.75,0,0,0-6.49,3.32,12.11,12.11,0,0,0-2.41,6.32h17Z"/></g><g id="group-4"><g id="group-5"><path id="path-13" class="cls-1" d="M185.56,37.58q0,6.73-4,10.14-3.75,3.14-10.65,3.14a49.51,49.51,0,0,1-5.87-.3V26a43.4,43.4,0,0,1,6.91-.52q6.57,0,9.91,2.85Q185.56,31.58,185.56,37.58Zm-4.23.11q0-4.37-2.32-6.7t-6.78-2.33a17,17,0,0,0-3.23.26V47.57a21.23,21.23,0,0,0,2.71.11q4.6,0,7.11-2.55T181.34,37.69Z"/><path id="path-14" class="cls-1" d="M208,41.5a9.84,9.84,0,0,1-2.38,6.81A8.49,8.49,0,0,1,199,51a8.07,8.07,0,0,1-6.33-2.63,9.55,9.55,0,0,1-2.35-6.62A9.75,9.75,0,0,1,192.74,35a8.43,8.43,0,0,1,6.55-2.66,8.26,8.26,0,0,1,6.38,2.62A9.48,9.48,0,0,1,208,41.5Zm-4.16.13a8.11,8.11,0,0,0-1.07-4.26,4,4,0,0,0-3.6-2.15,4,4,0,0,0-3.68,2.15,8.22,8.22,0,0,0-1.07,4.34A8.11,8.11,0,0,0,195.47,46a4,4,0,0,0,3.64,2.15,4,4,0,0,0,3.6-2.19A8.06,8.06,0,0,0,203.82,41.63Z"/><path id="path-15" class="cls-1" d="M238,32.66l-5.64,18h-3.67l-2.34-7.81A58.3,58.3,0,0,1,224.93,37h-.08a42.43,42.43,0,0,1-1.45,5.81l-2.48,7.81h-3.71l-5.31-18H216l2,8.55q.74,3,1.22,5.77h.07q.45-2.25,1.49-5.73l2.56-8.58h3.27l2.45,8.4q.89,3.07,1.45,5.92h.11a56.42,56.42,0,0,1,1.22-5.92l2.19-8.4H238Z"/><path id="path-16" class="cls-1" d="M258.82,50.64h-4V40.34q0-4.76-3.63-4.76a3.62,3.62,0,0,0-2.9,1.31A4.63,4.63,0,0,0,247.17,40V50.63h-4V37.79q0-2.37-.14-5.15h3.52l.19,2.81h.11a5.78,5.78,0,0,1,2.08-2.17,6.79,6.79,0,0,1,3.63-1,5.76,5.76,0,0,1,4.2,1.63q2.08,2,2.08,6Z"/><path id="path-17" class="cls-1" d="M269.88,50.64h-4V24.41h4Z"/><path id="path-18" class="cls-1" d="M293.48,41.5a9.84,9.84,0,0,1-2.38,6.81A8.5,8.5,0,0,1,284.5,51a8.06,8.06,0,0,1-6.33-2.63,9.55,9.55,0,0,1-2.35-6.62A9.75,9.75,0,0,1,278.24,35a8.43,8.43,0,0,1,6.55-2.66,8.27,8.27,0,0,1,6.39,2.62A9.48,9.48,0,0,1,293.48,41.5Zm-4.16.13a8.11,8.11,0,0,0-1.07-4.26,4,4,0,0,0-3.59-2.15A4,4,0,0,0,281,37.36a8.22,8.22,0,0,0-1.07,4.34A8.11,8.11,0,0,0,281,46a4,4,0,0,0,3.64,2.15,4,4,0,0,0,3.59-2.19A8,8,0,0,0,289.32,41.63Z"/><path id="path-19" class="cls-1" d="M312.89,50.64h-3.6l-.3-2.07h-.11A6.18,6.18,0,0,1,303.61,51a5.45,5.45,0,0,1-4.12-1.63,5.1,5.1,0,0,1-1.41-3.66,5.58,5.58,0,0,1,2.77-5Q303.61,39,308.62,39v-.34q0-3.55-3.75-3.55a8.41,8.41,0,0,0-4.7,1.33l-.82-2.62a11.59,11.59,0,0,1,6.19-1.55q7.07,0,7.08,7.44v6.62A28,28,0,0,0,312.89,50.64Zm-4.16-6.18V41.69q-6.63-.11-6.63,3.62a2.7,2.7,0,0,0,.77,2.11,2.81,2.81,0,0,0,2,.7,4.06,4.06,0,0,0,2.45-.83,3.41,3.41,0,0,0,1.45-2.83Z"/><path id="path-20" class="cls-1" d="M335.67,50.64h-3.56l-.19-2.89h-.11A6,6,0,0,1,326,51a6.8,6.8,0,0,1-5.42-2.55,9.92,9.92,0,0,1-2.15-6.62,10.41,10.41,0,0,1,2.34-7.07,7.2,7.2,0,0,1,5.57-2.52q3.63,0,5.08,2.44h.08V24.41h4V45.79Q335.53,48.42,335.67,50.64Zm-4.15-7.58v-3a5.87,5.87,0,0,0-.11-1.26A4.55,4.55,0,0,0,330,36.38a4,4,0,0,0-2.68-1,4.12,4.12,0,0,0-3.53,1.78,7.6,7.6,0,0,0-1.29,4.55,7.09,7.09,0,0,0,1.23,4.33,4.13,4.13,0,0,0,3.51,1.77,3.87,3.87,0,0,0,3.17-1.48,4.92,4.92,0,0,0,1.15-3.29Z"/><path id="path-21" class="cls-1" d="M370,41.5a9.84,9.84,0,0,1-2.38,6.81A8.49,8.49,0,0,1,361,51a8.08,8.08,0,0,1-6.33-2.63,9.55,9.55,0,0,1-2.35-6.62A9.75,9.75,0,0,1,354.73,35a8.44,8.44,0,0,1,6.55-2.66,8.25,8.25,0,0,1,6.38,2.62A9.48,9.48,0,0,1,370,41.5Zm-4.15.13a8.11,8.11,0,0,0-1.07-4.26,4,4,0,0,0-3.6-2.15,4,4,0,0,0-3.68,2.15,8.22,8.22,0,0,0-1.07,4.34A8.11,8.11,0,0,0,357.45,46a4,4,0,0,0,3.64,2.15,4,4,0,0,0,3.6-2.19A8.1,8.1,0,0,0,365.8,41.63Z"/><path id="path-22" class="cls-1" d="M391.52,50.64h-4V40.34q0-4.76-3.64-4.76A3.61,3.61,0,0,0,381,36.89,4.61,4.61,0,0,0,379.87,40V50.63h-4V37.79q0-2.37-.14-5.15h3.52l.19,2.81h.11a5.84,5.84,0,0,1,2.08-2.17,6.81,6.81,0,0,1,3.64-1,5.76,5.76,0,0,1,4.19,1.63q2.08,2,2.08,6Z"/><path id="path-23" class="cls-1" d="M418.5,35.65h-4.41v8.73c0,2.22.78,3.33,2.34,3.33a7.08,7.08,0,0,0,1.79-.19l.1,3a9,9,0,0,1-3.11.45,4.8,4.8,0,0,1-3.71-1.44q-1.34-1.44-1.34-4.85V35.65h-2.64v-3h2.64v-3.3l3.93-1.18v4.47h4.42Z"/><path id="path-24" class="cls-1" d="M439.73,50.64h-4V40.41q0-4.83-3.63-4.83a3.83,3.83,0,0,0-3.83,2.8,5,5,0,0,0-.19,1.44V50.63h-4V24.41h4V35.24h.08a6.07,6.07,0,0,1,5.42-3,5.6,5.6,0,0,1,4.12,1.63q2,2,2,6Z"/><path id="path-25" class="cls-1" d="M461.62,40.8a9.62,9.62,0,0,1-.15,1.81h-12a5.24,5.24,0,0,0,1.74,4.07,6,6,0,0,0,3.94,1.26,13.32,13.32,0,0,0,4.86-.85l.63,2.78A15.14,15.14,0,0,1,454.56,51,8.76,8.76,0,0,1,448,48.51a9,9,0,0,1-2.39-6.6,10.27,10.27,0,0,1,2.23-6.77,7.68,7.68,0,0,1,6.3-2.88,6.71,6.71,0,0,1,5.9,2.88A9.58,9.58,0,0,1,461.62,40.8Zm-3.82-1a5.37,5.37,0,0,0-.78-3.07A3.51,3.51,0,0,0,453.83,35a3.81,3.81,0,0,0-3.19,1.63,6,6,0,0,0-1.19,3.11Z"/></g></g></g></svg>