<svg id="Layer_1" data-name="Layer 1" xmlns="http://www.w3.org/2000/svg" viewBox="0 0 512 151.66"><defs><style>.cls-1{fill:#fff;}</style></defs><title>apple_black</title><path d="M20.72,0H491.27A20.73,20.73,0,0,1,512,20.73V130.93a20.73,20.73,0,0,1-20.73,20.73H20.72A20.72,20.72,0,0,1,0,130.93V20.72A20.72,20.72,0,0,1,20.72,0Z"/><g id="Download_on_the_App_Store_Badge_US-UK_135x40" data-name="Download on the App Store Badge US-UK 135x40"><g id="group"><g id="group-2"><path id="path-3" class="cls-1" d="M112.43,74.86c-.11-12.36,10.15-18.37,10.62-18.65a22.86,22.86,0,0,0-18-9.69C97.51,45.72,90.17,51,86.32,51s-9.86-4.44-16.26-4.31A24,24,0,0,0,49.91,59c-8.71,15-2.21,37.14,6.13,49.3,4.18,6,9.06,12.6,15.44,12.37s8.58-4,16.12-4,9.66,4,16.18,3.82c6.71-.11,10.93-6,15-12a49.13,49.13,0,0,0,6.84-13.89C125.43,94.57,112.56,89.67,112.43,74.86Z"/><path id="path-4" class="cls-1" d="M100.13,38.52c3.36-4.19,5.66-9.89,5-15.68-4.86.21-10.95,3.35-14.45,7.45-3.1,3.61-5.87,9.53-5.15,15.1C91,45.8,96.62,42.64,100.13,38.52Z"/></g></g><g id="group-3"><path id="path-5" class="cls-1" d="M202.87,119.79h-8.73l-4.79-15H172.73l-4.56,15h-8.5l16.47-51h10.18Zm-15-21.28-4.33-13.32q-.69-2-2.58-9.61h-.15q-.76,3.25-2.43,9.61l-4.25,13.32Z"/><path id="path-6" class="cls-1" d="M245.24,100.94q0,9.39-5.09,14.83a14.9,14.9,0,0,1-11.31,4.84q-7.29,0-10.48-5.22h-.15v19.38H210V95.11q0-5.9-.3-12.11h7.21l.46,5.83h.15q4.1-6.59,12.45-6.59a13.7,13.7,0,0,1,10.89,5.14Q245.24,92.54,245.24,100.94Zm-8.35.3a15.11,15.11,0,0,0-2.43-8.86,8.4,8.4,0,0,0-7.14-3.63,8.54,8.54,0,0,0-5.5,2A9.3,9.3,0,0,0,218.59,96a10.67,10.67,0,0,0-.38,2.49v6.13a9.81,9.81,0,0,0,2.47,6.78,8.19,8.19,0,0,0,6.41,2.76,8.4,8.4,0,0,0,7.21-3.56Q236.88,107.07,236.88,101.24Z"/><path id="path-7" class="cls-1" d="M287.68,100.94q0,9.39-5.09,14.83a14.88,14.88,0,0,1-11.31,4.84q-7.29,0-10.48-5.22h-.15v19.38h-8.2V95.11q0-5.9-.3-12.11h7.21l.46,5.83H260q4.1-6.59,12.45-6.59a13.73,13.73,0,0,1,10.9,5.14Q287.67,92.54,287.68,100.94Zm-8.35.3a15.11,15.11,0,0,0-2.43-8.86,8.39,8.39,0,0,0-7.13-3.63,8.55,8.55,0,0,0-5.51,2A9.29,9.29,0,0,0,261,96a10.88,10.88,0,0,0-.38,2.49v6.13a9.84,9.84,0,0,0,2.46,6.78,8.21,8.21,0,0,0,6.42,2.76,8.4,8.4,0,0,0,7.21-3.56Q279.33,107.07,279.33,101.24Z"/><path id="path-8" class="cls-1" d="M335.13,105.48a13.58,13.58,0,0,1-4.55,10.6q-5,4.47-13.94,4.47-8.26,0-13.26-3.18l1.9-6.81a22.53,22.53,0,0,0,11.85,3.26q4.63,0,7.22-2.09a6.8,6.8,0,0,0,2.57-5.57,7.1,7.1,0,0,0-2.13-5.23A19.74,19.74,0,0,0,317.74,97q-13.44-5-13.43-14.63A12.93,12.93,0,0,1,309,72q4.69-4,12.53-4a24.9,24.9,0,0,1,11.61,2.42l-2,6.67a20.19,20.19,0,0,0-9.79-2.35,9.93,9.93,0,0,0-6.75,2.11,6,6,0,0,0-2,4.62,6.23,6.23,0,0,0,2.35,5q2,1.82,7.45,3.94,6.61,2.65,9.72,6.2A12.94,12.94,0,0,1,335.13,105.48Z"/><path id="path-9" class="cls-1" d="M362.24,89.14h-9V107q0,6.81,4.78,6.81a14.62,14.62,0,0,0,3.64-.38l.23,6.21a18.63,18.63,0,0,1-6.38.9,9.85,9.85,0,0,1-7.59-3q-2.73-3-2.73-9.92V89.13h-5.38V83h5.39V76.26l8.05-2.42V83h9v6.14Z"/><path id="path-10" class="cls-1" d="M403,101.09q0,8.48-4.86,13.93-5.1,5.6-13.52,5.6-8.12,0-12.94-5.37a19.54,19.54,0,0,1-4.82-13.55q0-8.55,5-14t13.4-5.45q8.12,0,13.06,5.38Q403,92.84,403,101.09Zm-8.51.26a16.51,16.51,0,0,0-2.2-8.73,8.1,8.1,0,0,0-7.36-4.4,8.23,8.23,0,0,0-7.52,4.4,16.83,16.83,0,0,0-2.2,8.88,16.49,16.49,0,0,0,2.2,8.73,8.27,8.27,0,0,0,7.45,4.4q4.7,0,7.36-4.48A16.57,16.57,0,0,0,394.51,101.36Z"/><path id="path-11" class="cls-1" d="M429.66,90.19a14.28,14.28,0,0,0-2.58-.23,7.75,7.75,0,0,0-6.68,3.26,12.22,12.22,0,0,0-2,7.27v19.3h-8.19l.08-25.2q0-6.36-.31-11.58h7.14l.3,7h.23a12.58,12.58,0,0,1,4.1-5.83,9.93,9.93,0,0,1,5.93-2,13.2,13.2,0,0,1,2,.15Z"/><path id="path-12" class="cls-1" d="M466.33,99.66a19.11,19.11,0,0,1-.3,3.71h-24.6q.14,5.45,3.57,8.33a12.21,12.21,0,0,0,8,2.57,27.28,27.28,0,0,0,10-1.74l1.28,5.67a30.85,30.85,0,0,1-12.37,2.28q-8.58,0-13.48-5t-4.9-13.51q0-8.32,4.56-13.85a15.73,15.73,0,0,1,12.9-5.9q8,0,12.08,5.9A19.86,19.86,0,0,1,466.33,99.66Zm-7.82-2.12a11.08,11.08,0,0,0-1.59-6.29,7.17,7.17,0,0,0-6.53-3.41,7.79,7.79,0,0,0-6.53,3.33,12.18,12.18,0,0,0-2.43,6.36h17.08Z"/></g><g id="group-4"><g id="group-5"><path id="path-13" class="cls-1" d="M185.2,37.38q0,6.77-4.07,10.19-3.77,3.16-10.7,3.16a49.77,49.77,0,0,1-5.9-.3V25.77a43.63,43.63,0,0,1,6.94-.52q6.61,0,10,2.86Q185.2,31.35,185.2,37.38Zm-4.25.11q0-4.39-2.33-6.73t-6.81-2.34a17.1,17.1,0,0,0-3.25.26V47.42a21.34,21.34,0,0,0,2.72.11q4.63,0,7.14-2.57T181,37.49Z"/><path id="path-14" class="cls-1" d="M207.73,41.32a9.9,9.9,0,0,1-2.39,6.84,8.54,8.54,0,0,1-6.64,2.75,8.11,8.11,0,0,1-6.36-2.64A9.6,9.6,0,0,1,190,41.62a9.8,9.8,0,0,1,2.44-6.88A8.48,8.48,0,0,1,199,32.07a8.3,8.3,0,0,1,6.41,2.64A9.53,9.53,0,0,1,207.73,41.32Zm-4.18.13a8.16,8.16,0,0,0-1.08-4.29A4,4,0,0,0,198.86,35a4,4,0,0,0-3.7,2.16,8.26,8.26,0,0,0-1.08,4.36,8.16,8.16,0,0,0,1.08,4.29A4.07,4.07,0,0,0,198.82,48a4,4,0,0,0,3.61-2.2A8.1,8.1,0,0,0,203.55,41.45Z"/><path id="path-15" class="cls-1" d="M237.94,32.43l-5.67,18.07h-3.69l-2.35-7.85a58.6,58.6,0,0,1-1.46-5.84h-.08a42.65,42.65,0,0,1-1.46,5.84l-2.5,7.85H217l-5.33-18.07h4.14l2,8.59q.74,3,1.23,5.8h.07q.45-2.27,1.5-5.76l2.57-8.63h3.28L229,40.88q.89,3.09,1.45,6h.11a56.71,56.71,0,0,1,1.23-6l2.2-8.44h4Z"/><path id="path-16" class="cls-1" d="M258.83,50.51h-4V40.16q0-4.78-3.65-4.78a3.64,3.64,0,0,0-2.91,1.32,4.66,4.66,0,0,0-1.12,3.1V50.5h-4V37.6q0-2.38-.15-5.17h3.54l.19,2.83h.11a5.81,5.81,0,0,1,2.09-2.18,6.83,6.83,0,0,1,3.65-1,5.79,5.79,0,0,1,4.22,1.64q2.09,2,2.09,6Z"/><path id="path-17" class="cls-1" d="M269.95,50.51h-4V24.14h4Z"/><path id="path-18" class="cls-1" d="M293.68,41.32a9.9,9.9,0,0,1-2.39,6.84,8.54,8.54,0,0,1-6.64,2.75,8.1,8.1,0,0,1-6.36-2.64,9.6,9.6,0,0,1-2.37-6.66,9.8,9.8,0,0,1,2.44-6.88,8.48,8.48,0,0,1,6.58-2.68,8.31,8.31,0,0,1,6.42,2.64A9.53,9.53,0,0,1,293.68,41.32Zm-4.18.13a8.16,8.16,0,0,0-1.08-4.29A4,4,0,0,0,284.8,35a4,4,0,0,0-3.7,2.16A8.26,8.26,0,0,0,280,41.53a8.15,8.15,0,0,0,1.08,4.29A4.07,4.07,0,0,0,284.76,48a4,4,0,0,0,3.61-2.2A8.07,8.07,0,0,0,289.49,41.45Z"/><path id="path-19" class="cls-1" d="M313.18,50.51h-3.62l-.3-2.08h-.11a6.21,6.21,0,0,1-5.3,2.49,5.47,5.47,0,0,1-4.14-1.63,5.12,5.12,0,0,1-1.42-3.68,5.61,5.61,0,0,1,2.78-5.06q2.78-1.75,7.82-1.71V38.5q0-3.57-3.76-3.57a8.45,8.45,0,0,0-4.73,1.33l-.82-2.64a11.65,11.65,0,0,1,6.22-1.56q7.11,0,7.11,7.48V46.2A28.15,28.15,0,0,0,313.18,50.51ZM309,44.3V41.51q-6.67-.12-6.67,3.64a2.72,2.72,0,0,0,.77,2.12,2.82,2.82,0,0,0,2,.71,4.08,4.08,0,0,0,2.47-.84A3.43,3.43,0,0,0,309,44.3Z"/><path id="path-20" class="cls-1" d="M336.08,50.51h-3.57l-.19-2.9h-.11a6,6,0,0,1-5.82,3.31,6.83,6.83,0,0,1-5.44-2.57,10,10,0,0,1-2.16-6.66,10.46,10.46,0,0,1,2.35-7.1,7.23,7.23,0,0,1,5.6-2.53q3.65,0,5.11,2.45h.08V24.14h4v21.5Q335.94,48.28,336.08,50.51Zm-4.18-7.62v-3a5.9,5.9,0,0,0-.11-1.26,4.57,4.57,0,0,0-1.46-2.43,4,4,0,0,0-2.7-1A4.14,4.14,0,0,0,324.09,37a7.64,7.64,0,0,0-1.29,4.57A7.12,7.12,0,0,0,324,45.9a4.15,4.15,0,0,0,3.52,1.78,3.89,3.89,0,0,0,3.18-1.49,4.94,4.94,0,0,0,1.15-3.31Z"/><path id="path-21" class="cls-1" d="M370.55,41.32a9.9,9.9,0,0,1-2.39,6.84,8.53,8.53,0,0,1-6.64,2.75,8.12,8.12,0,0,1-6.36-2.64,9.6,9.6,0,0,1-2.37-6.66,9.8,9.8,0,0,1,2.44-6.88,8.48,8.48,0,0,1,6.59-2.68,8.29,8.29,0,0,1,6.41,2.64A9.53,9.53,0,0,1,370.55,41.32Zm-4.18.13a8.16,8.16,0,0,0-1.08-4.29A4,4,0,0,0,361.67,35a4.05,4.05,0,0,0-3.7,2.16,8.26,8.26,0,0,0-1.08,4.36A8.16,8.16,0,0,0,358,45.81,4.07,4.07,0,0,0,361.63,48a4,4,0,0,0,3.62-2.2A8.14,8.14,0,0,0,366.37,41.45Z"/><path id="path-22" class="cls-1" d="M392.22,50.51h-4V40.16q0-4.78-3.66-4.78a3.63,3.63,0,0,0-2.91,1.32,4.64,4.64,0,0,0-1.12,3.1V50.5h-4V37.6q0-2.38-.14-5.17h3.54l.19,2.83h.11a5.87,5.87,0,0,1,2.09-2.18,6.84,6.84,0,0,1,3.66-1,5.79,5.79,0,0,1,4.22,1.64q2.1,2,2.09,6Z"/><path id="path-23" class="cls-1" d="M419.34,35.44H414.9v8.78c0,2.23.79,3.35,2.35,3.35a7.12,7.12,0,0,0,1.8-.19l.1,3a9.08,9.08,0,0,1-3.13.45,4.83,4.83,0,0,1-3.73-1.45Q410.95,48,411,44.56V35.44H408.3v-3H411V29.12l3.95-1.19v4.5h4.44Z"/><path id="path-24" class="cls-1" d="M440.67,50.51h-4V40.23q0-4.86-3.65-4.86a3.85,3.85,0,0,0-3.85,2.82,5,5,0,0,0-.19,1.45V50.5h-4V24.14h4V35H429a6.1,6.1,0,0,1,5.44-3,5.63,5.63,0,0,1,4.15,1.64q2,2,2,6.06Z"/><path id="path-25" class="cls-1" d="M462.68,40.62a9.67,9.67,0,0,1-.15,1.82H450.44a5.26,5.26,0,0,0,1.75,4.09,6,6,0,0,0,4,1.26,13.39,13.39,0,0,0,4.89-.86l.63,2.79a15.22,15.22,0,0,1-6.08,1.12A8.8,8.8,0,0,1,449,48.37a9.09,9.09,0,0,1-2.4-6.64,10.32,10.32,0,0,1,2.24-6.81,7.72,7.72,0,0,1,6.34-2.9,6.75,6.75,0,0,1,5.93,2.9A9.63,9.63,0,0,1,462.68,40.62Zm-3.84-1a5.4,5.4,0,0,0-.78-3.09,3.52,3.52,0,0,0-3.21-1.68,3.83,3.83,0,0,0-3.21,1.64,6.07,6.07,0,0,0-1.2,3.12Z"/></g></g></g></svg>