<svg id="Layer_1" data-name="Layer 1" xmlns="http://www.w3.org/2000/svg" viewBox="0 0 511.78 151.66"><defs><style>.cls-1,.cls-2{fill:#7d7c7d;}.cls-1{fill-rule:evenodd;}</style></defs><title>google_light</title><path class="cls-1" d="M185.23,83.37H161.4v7.07H178.3c-.84,9.92-9.09,14.15-16.88,14.15a18.89,18.89,0,0,1,0-37.78,18.35,18.35,0,0,1,12.75,5.11l5-5.13a25.18,25.18,0,0,0-18-7.08,26,26,0,1,0,.38,52c13.91,0,24.1-9.53,24.1-23.62a21.21,21.21,0,0,0-.43-4.69Z"/><path class="cls-1" d="M205.59,84.81C210.4,84.81,215,88.7,215,95s-4.54,10.13-9.39,10.13c-5.33,0-9.54-4.27-9.54-10.18s4.15-10.11,9.56-10.11Zm-.1-6.56A16.7,16.7,0,1,0,222.26,95c0-11.06-8.72-16.76-16.76-16.76Z"/><path class="cls-1" d="M242.51,84.81c4.81,0,9.37,3.89,9.37,10.16s-4.54,10.13-9.39,10.13c-5.33,0-9.54-4.27-9.54-10.18s4.15-10.11,9.56-10.11Zm-.1-6.56A16.7,16.7,0,1,0,259.17,95c0-11.06-8.72-16.76-16.76-16.76Z"/><path class="cls-1" d="M279.22,84.82c4.4,0,8.92,3.76,8.92,10.18s-4.51,10.12-9,10.12c-4.79,0-9.24-3.89-9.24-10.06,0-6.41,4.63-10.24,9.34-10.24Zm-.65-6.55c-9,0-16,7.86-16,16.69,0,10.05,8.18,16.72,15.88,16.72a11,11,0,0,0,9.16-4.06v3.29c0,5.76-3.5,9.21-8.78,9.21a9.26,9.26,0,0,1-8.55-5.95l-6.42,2.68c2.28,4.82,6.86,9.84,15,9.84,8.93,0,15.73-5.62,15.73-17.41v-30h-7V82.1a11.81,11.81,0,0,0-9-3.83Z"/><path class="cls-1" d="M327.48,84.65a6.66,6.66,0,0,1,6.18,3.57l-15,6.25c-.64-4.84,3.94-9.82,8.78-9.82Zm-.29-6.42c-8.47,0-15.58,6.74-15.58,16.68,0,10.52,7.93,16.76,16.39,16.76a17,17,0,0,0,14-7.33l-5.77-3.84a9.35,9.35,0,0,1-8.18,4.6,8.59,8.59,0,0,1-8.19-5.06l22.4-9.29L341.08,88a15.12,15.12,0,0,0-13.89-9.79Z"/><rect class="cls-2" x="300.19" y="61.45" width="7.36" height="49.23"/><rect class="cls-2" x="398.83" y="61.45" width="7.36" height="49.23"/><rect class="cls-2" x="359.82" y="61.45" width="7.36" height="49.23"/><path class="cls-1" d="M359.82,61.45h17.8a15.73,15.73,0,0,1,15.68,15.68h0a15.73,15.73,0,0,1-15.68,15.68h-17.8V61.45Zm7.36,7.36V85.46h10.44a8.33,8.33,0,1,0,0-16.65Z"/><polygon class="cls-1" points="460.5 126.7 481.8 78.23 473.76 78.23 452.46 126.7 460.5 126.7"/><polygon class="cls-1" points="462.88 115.61 446.45 78.23 454.49 78.23 465.81 104.01 462.88 104.01 462.88 115.61"/><path class="cls-1" d="M436.29,110.68h7.36V93c1.15-18.26-22-22.56-30.76-9.39l5.92,4c4.28-7.49,16.51-5.77,17.31,2.26a32.61,32.61,0,0,0-11.27-1.31c-5.66.57-10.51,4.17-11.27,10.05-.42,3.18.29,7.1,2.51,9.49,3.46,3.72,9.14,4.23,13.81,3a12.66,12.66,0,0,0,6.39-4.29v4Zm0-14.23a11.07,11.07,0,0,1-8.14,8.14c-8.51,2.32-10.62-11.5,2-9.6A31.55,31.55,0,0,1,436.29,96.45Z"/><path class="cls-1" d="M159.35,31.49H148.5v3.22h7.69c-.38,4.51-4.14,6.44-7.68,6.44a8.6,8.6,0,0,1,0-17.2,8.35,8.35,0,0,1,5.8,2.33l2.25-2.33a11.46,11.46,0,0,0-8.17-3.22,12,12,0,0,0-11.92,11.8,12,12,0,0,0,12.09,11.85c6.33,0,11-4.34,11-10.75a9.65,9.65,0,0,0-.2-2.14Z"/><rect class="cls-2" x="203.69" y="21.51" width="3.35" height="22.4"/><path class="cls-1" d="M184.94,43.92h3.35V24.86h5.5V21.51H179.45v3.35h5.5Z"/><path class="cls-1" d="M163.08,43.92h12.84V40.57h-9.49V34.39h8.35V31h-8.35V24.86h9.49V21.51H163.08Z"/><path class="cls-1" d="M215.26,43.92h3.35V24.86h5.5V21.51H209.76v3.35h5.5Z"/><path class="cls-1" d="M244.63,41.15A8.6,8.6,0,1,1,253,32.58a8.46,8.46,0,0,1-8.39,8.57Zm0-20.42a12,12,0,0,0-11.92,11.8,11.92,11.92,0,0,0,23.83,0A12,12,0,0,0,244.63,20.73Z"/><polygon class="cls-1" points="259.89 43.92 263.24 43.92 263.24 27.6 274 43.92 277.34 43.92 277.34 21.51 273.99 21.51 273.99 37.83 263.24 21.51 259.89 21.51 259.89 43.92"/><path class="cls-1" d="M48.38,124.55a7.84,7.84,0,0,0,1-.46l46-25.18L84.48,88l-36.1,36.54Zm49-26.76L86,86.43l11.37-11.5,15.65,8.54c3.86,2.1,1.88,4.73,0,5.76L97.43,97.79Zm-2-24-46-25.09a4.64,4.64,0,0,0-1.61-.5L84.47,84.86l10.91-11ZM45.08,48.67,82.91,86.44l-37.64,38.1c-1.1-.7-1.69-2.21-1.7-4.16,0-3.74-.32-63.16-.34-67.62C43.21,50.62,44,49.32,45.08,48.67Z"/><path class="cls-2" d="M489.86,151.66H21.92A21.82,21.82,0,0,1,0,130V21.67A21.82,21.82,0,0,1,21.92,0H489.86a21.82,21.82,0,0,1,21.92,21.67V130A21.82,21.82,0,0,1,489.86,151.66ZM21.92,2.59A19.21,19.21,0,0,0,2.62,21.67V130a19.21,19.21,0,0,0,19.3,19.07H489.86A19.21,19.21,0,0,0,509.15,130V21.67a19.21,19.21,0,0,0-19.3-19.07Z"/></svg>