<svg id="Layer_1" data-name="Layer 1" xmlns="http://www.w3.org/2000/svg" xmlns:xlink="http://www.w3.org/1999/xlink" viewBox="0 0 512 151.66"><defs><style>.cls-1,.cls-2{fill:#fff;}.cls-1,.cls-3,.cls-4,.cls-5,.cls-6{fill-rule:evenodd;}.cls-3{fill:url(#GradientFill_1);}.cls-4{fill:url(#GradientFill_2);}.cls-5{fill:url(#GradientFill_3);}.cls-6{fill:url(#GradientFill_4);}</style><linearGradient id="GradientFill_1" x1="105.28" y1="97.95" x2="92.53" y2="72.93" gradientUnits="userSpaceOnUse"><stop offset="0" stop-color="#facd8a"/><stop offset="1" stop-color="#f5906c"/></linearGradient><linearGradient id="GradientFill_2" x1="95.43" y1="85.64" x2="45.64" y2="137.2" gradientUnits="userSpaceOnUse"><stop offset="0" stop-color="#e62d38"/><stop offset="1" stop-color="#78459a"/></linearGradient><linearGradient id="GradientFill_3" x1="94.11" y1="86.49" x2="46.97" y2="35.94" gradientUnits="userSpaceOnUse"><stop offset="0" stop-color="#e5eba5"/><stop offset="1" stop-color="#38bbba"/></linearGradient><linearGradient id="GradientFill_4" x1="62.88" y1="157.94" x2="62.88" y2="14.84" gradientUnits="userSpaceOnUse"><stop offset="0" stop-color="#8dd1cd"/><stop offset="1" stop-color="#006f8c"/></linearGradient></defs><title>google_black</title><path d="M20.72,0H491.28A20.72,20.72,0,0,1,512,20.72V130.93a20.73,20.73,0,0,1-20.73,20.73H20.72A20.72,20.72,0,0,1,0,130.93V20.72A20.72,20.72,0,0,1,20.72,0Z"/><path class="cls-1" d="M184.95,83.14H161v7.11h17c-.84,10-9.14,14.23-17,14.23a19,19,0,0,1,0-38,18.45,18.45,0,0,1,12.82,5.14l5-5.16a25.32,25.32,0,0,0-18.05-7.12,26.13,26.13,0,1,0,.38,52.26c14,0,24.23-9.58,24.23-23.76a21.33,21.33,0,0,0-.43-4.72Z"/><path class="cls-1" d="M205.42,84.59c4.84,0,9.42,3.91,9.42,10.21S210.28,105,205.4,105c-5.36,0-9.59-4.29-9.59-10.24s4.18-10.16,9.61-10.16Zm-.1-6.6a16.8,16.8,0,1,0,16.85,16.85c0-11.12-8.77-16.85-16.85-16.85Z"/><path class="cls-1" d="M242.55,84.59c4.84,0,9.42,3.91,9.42,10.21S247.4,105,242.52,105c-5.36,0-9.59-4.29-9.59-10.24s4.18-10.16,9.61-10.16Zm-.1-6.6A16.8,16.8,0,1,0,259.3,94.84c0-11.12-8.77-16.85-16.85-16.85Z"/><path class="cls-1" d="M279.46,84.59c4.43,0,9,3.78,9,10.23S283.9,105,279.36,105c-4.81,0-9.29-3.91-9.29-10.11,0-6.45,4.65-10.3,9.39-10.3ZM278.81,78c-9,0-16.12,7.91-16.12,16.78,0,10.11,8.23,16.81,16,16.81a11.1,11.1,0,0,0,9.21-4.08v3.31c0,5.79-3.52,9.26-8.83,9.26a9.31,9.31,0,0,1-8.6-6l-6.46,2.7c2.29,4.84,6.9,9.89,15.11,9.89,9,0,15.82-5.65,15.82-17.51V79h-7v2.85A11.88,11.88,0,0,0,278.81,78Z"/><path class="cls-1" d="M328,84.43A6.7,6.7,0,0,1,334.21,88l-15,6.29c-.65-4.87,4-9.87,8.82-9.87ZM327.7,78C319.18,78,312,84.74,312,94.74c0,10.58,8,16.85,16.48,16.85a17,17,0,0,0,14.07-7.37l-5.81-3.86a9.4,9.4,0,0,1-8.23,4.62c-4.72,0-6.89-2.59-8.24-5.09l22.52-9.35-1.17-2.74a15.21,15.21,0,0,0-14-9.84Z"/><rect class="cls-2" x="300.55" y="61.09" width="7.4" height="49.51"/><path class="cls-3" d="M95.63,98.2,112.38,89c1.89-1,3.88-3.68,0-5.8L95.62,74.09l-12,12.09Z"/><path class="cls-4" d="M83.62,86.18,45.23,124.86a5.22,5.22,0,0,0,3.11-.78L95.63,98.2Z"/><path class="cls-5" d="M83.62,86.18l12-12.09L48.34,48.3A5,5,0,0,0,45,47.85Z"/><path class="cls-6" d="M83.62,86.18,45,47.85c-1.59.36-2.88,1.74-2.86,4.5,0,4.48.32,64.24.34,68,0,2.6,1,4.42,2.94,4.59Z"/><rect class="cls-2" x="399.74" y="61.09" width="7.4" height="49.51"/><rect class="cls-2" x="360.51" y="61.09" width="7.4" height="49.51"/><path class="cls-1" d="M360.51,61.09H378.4a15.82,15.82,0,0,1,15.77,15.77h0A15.82,15.82,0,0,1,378.4,92.63H360.51V61.09Zm7.4,7.4V85.24h10.5a8.37,8.37,0,1,0,0-16.75Z"/><polygon class="cls-1" points="461.75 126.71 483.17 77.97 475.09 77.97 453.67 126.71 461.75 126.71"/><polygon class="cls-1" points="464.14 115.56 447.63 77.97 455.71 77.97 467.1 103.89 464.14 103.89 464.14 115.56"/><path class="cls-1" d="M437.41,110.6h7.4V92.79c1.16-18.36-22.12-22.68-30.93-9.45l6,4c4.31-7.53,16.6-5.8,17.41,2.27A32.79,32.79,0,0,0,425.9,88.3c-5.69.58-10.56,4.19-11.34,10.11-.42,3.2.3,7.14,2.53,9.55,3.48,3.74,9.19,4.25,13.89,3a12.73,12.73,0,0,0,6.43-4.32v4Zm0-14.31a11.14,11.14,0,0,1-8.19,8.18c-8.55,2.33-10.68-11.57,2-9.66A31.73,31.73,0,0,1,437.41,96.29Z"/><path class="cls-1" d="M158.92,31H148v3.24h7.74c-.38,4.54-4.16,6.48-7.72,6.48a8.65,8.65,0,0,1,0-17.29,8.4,8.4,0,0,1,5.83,2.34l2.27-2.35a11.52,11.52,0,0,0-8.22-3.24,12.09,12.09,0,0,0-12,11.86,12,12,0,0,0,12.16,11.92c6.37,0,11-4.36,11-10.81a9.7,9.7,0,0,0-.2-2.15Z"/><rect class="cls-2" x="203.51" y="20.94" width="3.37" height="22.53"/><path class="cls-1" d="M184.66,43.47H188V24.3h5.53V20.94H179.13V24.3h5.53Z"/><path class="cls-1" d="M162.67,43.47h12.91V40.1H166V33.88h8.4V30.52H166V24.3h9.54V20.94H162.67Z"/><path class="cls-1" d="M215.14,43.47h3.37V24.3H224V20.94H209.62V24.3h5.53Z"/><path class="cls-1" d="M244.68,40.68a8.65,8.65,0,1,1,8.44-8.62,8.51,8.51,0,0,1-8.44,8.62Zm0-20.54A12.09,12.09,0,0,0,232.7,32a12,12,0,0,0,24,0A12.09,12.09,0,0,0,244.68,20.14Z"/><polygon class="cls-1" points="260.03 43.47 263.39 43.47 263.39 27.05 274.21 43.47 277.57 43.47 277.57 20.93 274.2 20.93 274.2 37.34 263.39 20.93 260.03 20.93 260.03 43.47"/><path class="cls-3" d="M95.63,98.2,112.38,89c1.89-1,3.88-3.68,0-5.8L95.62,74.09l-12,12.09Z"/><path class="cls-4" d="M83.62,86.18,45.23,124.86a5.22,5.22,0,0,0,3.11-.78L95.63,98.2Z"/><path class="cls-5" d="M83.62,86.18l12-12.09L48.34,48.3A5,5,0,0,0,45,47.85Z"/><path class="cls-6" d="M83.62,86.18,45,47.85c-1.59.36-2.88,1.74-2.86,4.5,0,4.48.32,64.24.34,68,0,2.6,1,4.42,2.94,4.59Z"/></svg>